<?xml version="1.0" encoding="UTF-8" standalone="no"?>
<!DOCTYPE svg PUBLIC "-//W3C//DTD SVG 1.1//EN"
 "http://www.w3.org/Graphics/SVG/1.1/DTD/svg11.dtd">
<!-- Generated by graphviz version 7.1.0 (0)
 -->
<!-- Pages: 1 -->
<svg width="341pt" height="476pt"
 viewBox="0.00 0.00 341.03 476.00" xmlns="http://www.w3.org/2000/svg" xmlns:xlink="http://www.w3.org/1999/xlink">
<g id="graph0" class="graph" transform="scale(1 1) rotate(0) translate(4 472)">
<polygon fill="white" stroke="none" points="-4,4 -4,-472 337.03,-472 337.03,4 -4,4"/>
<!-- [root] ___ROOT___#build -->
<g id="node1" class="node">
<title>[root] ___ROOT___#build</title>
<ellipse fill="none" stroke="black" cx="180.79" cy="-90" rx="124.28" ry="18"/>
<text text-anchor="middle" x="180.79" y="-86.3" font-family="Times,serif" font-size="14.00">[root] ___ROOT___#build</text>
</g>
<!-- [root] ___ROOT___ -->
<g id="node2" class="node">
<title>[root] ___ROOT___</title>
<ellipse fill="none" stroke="black" cx="180.79" cy="-18" rx="92.88" ry="18"/>
<text text-anchor="middle" x="180.79" y="-14.3" font-family="Times,serif" font-size="14.00">[root] ___ROOT___</text>
</g>
<!-- [root] ___ROOT___#build&#45;&gt;[root] ___ROOT___ -->
<g id="edge1" class="edge">
<title>[root] ___ROOT___#build&#45;&gt;[root] ___ROOT___</title>
<path fill="none" stroke="black" d="M180.79,-71.7C180.79,-64.41 180.79,-55.73 180.79,-47.54"/>
<polygon fill="black" stroke="black" points="184.29,-47.62 180.79,-37.62 177.29,-47.62 184.29,-47.62"/>
</g>
<!-- [root] desktop#build -->
<g id="node3" class="node">
<title>[root] desktop#build</title>
<ellipse fill="none" stroke="black" cx="225.79" cy="-450" rx="107.48" ry="18"/>
<text text-anchor="middle" x="225.79" y="-446.3" font-family="Times,serif" font-size="14.00">[root] desktop#build</text>
</g>
<!-- [root] web#build -->
<g id="node4" class="node">
<title>[root] web#build</title>
<ellipse fill="none" stroke="black" cx="225.79" cy="-378" rx="89.88" ry="18"/>
<text text-anchor="middle" x="225.79" y="-374.3" font-family="Times,serif" font-size="14.00">[root] web#build</text>
</g>
<!-- [root] desktop#build&#45;&gt;[root] web#build -->
<g id="edge2" class="edge">
<title>[root] desktop#build&#45;&gt;[root] web#build</title>
<path fill="none" stroke="black" d="M225.79,-431.7C225.79,-424.41 225.79,-415.73 225.79,-407.54"/>
<polygon fill="black" stroke="black" points="229.29,-407.62 225.79,-397.62 222.29,-407.62 229.29,-407.62"/>
</g>
<!-- [root] editor#build -->
<g id="node5" class="node">
<title>[root] editor#build</title>
<ellipse fill="none" stroke="black" cx="98.79" cy="-306" rx="98.58" ry="18"/>
<text text-anchor="middle" x="98.79" y="-302.3" font-family="Times,serif" font-size="14.00">[root] editor#build</text>
</g>
<!-- [root] web#build&#45;&gt;[root] editor#build -->
<g id="edge7" class="edge">
<title>[root] web#build&#45;&gt;[root] editor#build</title>
<path fill="none" stroke="black" d="M196.02,-360.59C178.94,-351.18 157.29,-339.24 138.75,-329.02"/>
<polygon fill="black" stroke="black" points="140.59,-326.04 130.15,-324.28 137.21,-332.17 140.59,-326.04"/>
</g>
<!-- [root] tsconfig#build -->
<g id="node6" class="node">
<title>[root] tsconfig#build</title>
<ellipse fill="none" stroke="black" cx="180.79" cy="-162" rx="107.78" ry="18"/>
<text text-anchor="middle" x="180.79" y="-158.3" font-family="Times,serif" font-size="14.00">[root] tsconfig#build</text>
</g>
<!-- [root] web#build&#45;&gt;[root] tsconfig#build -->
<g id="edge8" class="edge">
<title>[root] web#build&#45;&gt;[root] tsconfig#build</title>
<path fill="none" stroke="black" d="M238.28,-359.96C259.05,-329.36 295.83,-263.86 268.79,-216 261.17,-202.51 248.58,-192.07 235.27,-184.16"/>
<polygon fill="black" stroke="black" points="237.3,-181.28 226.85,-179.57 233.95,-187.43 237.3,-181.28"/>
</g>
<!-- [root] ui#build -->
<g id="node7" class="node">
<title>[root] ui#build</title>
<ellipse fill="none" stroke="black" cx="180.79" cy="-234" rx="79.09" ry="18"/>
<text text-anchor="middle" x="180.79" y="-230.3" font-family="Times,serif" font-size="14.00">[root] ui#build</text>
</g>
<!-- [root] web#build&#45;&gt;[root] ui#build -->
<g id="edge9" class="edge">
<title>[root] web#build&#45;&gt;[root] ui#build</title>
<path fill="none" stroke="black" d="M223.37,-359.6C220.55,-341.4 215.16,-312.19 206.79,-288 203.81,-279.38 199.76,-270.35 195.74,-262.23"/>
<polygon fill="black" stroke="black" points="198.96,-260.83 191.27,-253.55 192.73,-264.04 198.96,-260.83"/>
</g>
<!-- [root] editor#build&#45;&gt;[root] tsconfig#build -->
<g id="edge3" class="edge">
<title>[root] editor#build&#45;&gt;[root] tsconfig#build</title>
<path fill="none" stroke="black" d="M92.29,-287.69C86.35,-268.79 80.22,-238.25 92.79,-216 100.42,-202.51 113.01,-192.07 126.31,-184.16"/>
<polygon fill="black" stroke="black" points="127.63,-187.43 134.74,-179.57 124.28,-181.28 127.63,-187.43"/>
</g>
<!-- [root] editor#build&#45;&gt;[root] ui#build -->
<g id="edge4" class="edge">
<title>[root] editor#build&#45;&gt;[root] ui#build</title>
<path fill="none" stroke="black" d="M118.64,-288.05C128.81,-279.37 141.38,-268.64 152.54,-259.11"/>
<polygon fill="black" stroke="black" points="154.64,-261.93 159.97,-252.77 150.09,-256.6 154.64,-261.93"/>
</g>
<!-- [root] tsconfig#build&#45;&gt;[root] ___ROOT___#build -->
<g id="edge5" class="edge">
<title>[root] tsconfig#build&#45;&gt;[root] ___ROOT___#build</title>
<path fill="none" stroke="black" d="M180.79,-143.7C180.79,-136.41 180.79,-127.73 180.79,-119.54"/>
<polygon fill="black" stroke="black" points="184.29,-119.62 180.79,-109.62 177.29,-119.62 184.29,-119.62"/>
</g>
<!-- [root] ui#build&#45;&gt;[root] tsconfig#build -->
<g id="edge6" class="edge">
<title>[root] ui#build&#45;&gt;[root] tsconfig#build</title>
<path fill="none" stroke="black" d="M180.79,-215.7C180.79,-208.41 180.79,-199.73 180.79,-191.54"/>
<polygon fill="black" stroke="black" points="184.29,-191.62 180.79,-181.62 177.29,-191.62 184.29,-191.62"/>
</g>
</g>
</svg>
