<?xml version="1.0" encoding="UTF-8" standalone="no"?>
<!DOCTYPE svg PUBLIC "-//W3C//DTD SVG 1.1//EN"
 "http://www.w3.org/Graphics/SVG/1.1/DTD/svg11.dtd">
<!-- Generated by graphviz version 7.1.0 (0)
 -->
<!-- Pages: 1 -->
<svg width="483pt" height="404pt"
 viewBox="0.00 0.00 482.93 404.00" xmlns="http://www.w3.org/2000/svg" xmlns:xlink="http://www.w3.org/1999/xlink">
<g id="graph0" class="graph" transform="scale(1 1) rotate(0) translate(4 400)">
<polygon fill="white" stroke="none" points="-4,4 -4,-400 478.93,-400 478.93,4 -4,4"/>
<!-- [root] ___ROOT___#build -->
<g id="node1" class="node">
<title>[root] ___ROOT___#build</title>
<ellipse fill="none" stroke="black" cx="223.24" cy="-90" rx="124.28" ry="18"/>
<text text-anchor="middle" x="223.24" y="-86.3" font-family="Times,serif" font-size="14.00">[root] ___ROOT___#build</text>
</g>
<!-- [root] ___ROOT___ -->
<g id="node2" class="node">
<title>[root] ___ROOT___</title>
<ellipse fill="none" stroke="black" cx="223.24" cy="-18" rx="92.88" ry="18"/>
<text text-anchor="middle" x="223.24" y="-14.3" font-family="Times,serif" font-size="14.00">[root] ___ROOT___</text>
</g>
<!-- [root] ___ROOT___#build&#45;&gt;[root] ___ROOT___ -->
<g id="edge1" class="edge">
<title>[root] ___ROOT___#build&#45;&gt;[root] ___ROOT___</title>
<path fill="none" stroke="black" d="M223.24,-71.7C223.24,-64.41 223.24,-55.73 223.24,-47.54"/>
<polygon fill="black" stroke="black" points="226.74,-47.62 223.24,-37.62 219.74,-47.62 226.74,-47.62"/>
</g>
<!-- [root] desktop#build -->
<g id="node3" class="node">
<title>[root] desktop#build</title>
<ellipse fill="none" stroke="black" cx="107.24" cy="-162" rx="107.48" ry="18"/>
<text text-anchor="middle" x="107.24" y="-158.3" font-family="Times,serif" font-size="14.00">[root] desktop#build</text>
</g>
<!-- [root] desktop#build&#45;&gt;[root] ___ROOT___#build -->
<g id="edge2" class="edge">
<title>[root] desktop#build&#45;&gt;[root] ___ROOT___#build</title>
<path fill="none" stroke="black" d="M135.03,-144.23C150.12,-135.12 169.01,-123.72 185.43,-113.82"/>
<polygon fill="black" stroke="black" points="187.23,-116.82 193.98,-108.65 183.61,-110.82 187.23,-116.82"/>
</g>
<!-- [root] editor#build -->
<g id="node4" class="node">
<title>[root] editor#build</title>
<ellipse fill="none" stroke="black" cx="258.24" cy="-306" rx="98.58" ry="18"/>
<text text-anchor="middle" x="258.24" y="-302.3" font-family="Times,serif" font-size="14.00">[root] editor#build</text>
</g>
<!-- [root] tsconfig#build -->
<g id="node5" class="node">
<title>[root] tsconfig#build</title>
<ellipse fill="none" stroke="black" cx="340.24" cy="-162" rx="107.78" ry="18"/>
<text text-anchor="middle" x="340.24" y="-158.3" font-family="Times,serif" font-size="14.00">[root] tsconfig#build</text>
</g>
<!-- [root] editor#build&#45;&gt;[root] tsconfig#build -->
<g id="edge3" class="edge">
<title>[root] editor#build&#45;&gt;[root] tsconfig#build</title>
<path fill="none" stroke="black" d="M251.74,-287.69C245.8,-268.79 239.67,-238.25 252.24,-216 259.87,-202.51 272.46,-192.07 285.76,-184.16"/>
<polygon fill="black" stroke="black" points="287.08,-187.43 294.18,-179.57 283.73,-181.28 287.08,-187.43"/>
</g>
<!-- [root] ui#build -->
<g id="node6" class="node">
<title>[root] ui#build</title>
<ellipse fill="none" stroke="black" cx="340.24" cy="-234" rx="79.09" ry="18"/>
<text text-anchor="middle" x="340.24" y="-230.3" font-family="Times,serif" font-size="14.00">[root] ui#build</text>
</g>
<!-- [root] editor#build&#45;&gt;[root] ui#build -->
<g id="edge4" class="edge">
<title>[root] editor#build&#45;&gt;[root] ui#build</title>
<path fill="none" stroke="black" d="M278.09,-288.05C288.26,-279.37 300.83,-268.64 311.99,-259.11"/>
<polygon fill="black" stroke="black" points="314.09,-261.93 319.42,-252.77 309.54,-256.6 314.09,-261.93"/>
</g>
<!-- [root] tsconfig#build&#45;&gt;[root] ___ROOT___#build -->
<g id="edge5" class="edge">
<title>[root] tsconfig#build&#45;&gt;[root] ___ROOT___#build</title>
<path fill="none" stroke="black" d="M312.22,-144.23C296.84,-135.04 277.58,-123.51 260.91,-113.54"/>
<polygon fill="black" stroke="black" points="263.12,-110.78 252.74,-108.65 259.52,-116.79 263.12,-110.78"/>
</g>
<!-- [root] ui#build&#45;&gt;[root] tsconfig#build -->
<g id="edge6" class="edge">
<title>[root] ui#build&#45;&gt;[root] tsconfig#build</title>
<path fill="none" stroke="black" d="M340.24,-215.7C340.24,-208.41 340.24,-199.73 340.24,-191.54"/>
<polygon fill="black" stroke="black" points="343.74,-191.62 340.24,-181.62 336.74,-191.62 343.74,-191.62"/>
</g>
<!-- [root] web#build -->
<g id="node7" class="node">
<title>[root] web#build</title>
<ellipse fill="none" stroke="black" cx="385.24" cy="-378" rx="89.88" ry="18"/>
<text text-anchor="middle" x="385.24" y="-374.3" font-family="Times,serif" font-size="14.00">[root] web#build</text>
</g>
<!-- [root] web#build&#45;&gt;[root] editor#build -->
<g id="edge7" class="edge">
<title>[root] web#build&#45;&gt;[root] editor#build</title>
<path fill="none" stroke="black" d="M355.46,-360.59C338.39,-351.18 316.74,-339.24 298.2,-329.02"/>
<polygon fill="black" stroke="black" points="300.04,-326.04 289.6,-324.28 296.66,-332.17 300.04,-326.04"/>
</g>
<!-- [root] web#build&#45;&gt;[root] tsconfig#build -->
<g id="edge8" class="edge">
<title>[root] web#build&#45;&gt;[root] tsconfig#build</title>
<path fill="none" stroke="black" d="M397.73,-359.96C418.5,-329.36 455.28,-263.86 428.24,-216 420.62,-202.51 408.03,-192.07 394.72,-184.16"/>
<polygon fill="black" stroke="black" points="396.75,-181.28 386.3,-179.57 393.4,-187.43 396.75,-181.28"/>
</g>
<!-- [root] web#build&#45;&gt;[root] ui#build -->
<g id="edge9" class="edge">
<title>[root] web#build&#45;&gt;[root] ui#build</title>
<path fill="none" stroke="black" d="M382.82,-359.6C380,-341.4 374.61,-312.19 366.24,-288 363.26,-279.38 359.21,-270.35 355.19,-262.23"/>
<polygon fill="black" stroke="black" points="358.41,-260.83 350.72,-253.55 352.18,-264.04 358.41,-260.83"/>
</g>
</g>
</svg>
