<?xml version="1.0" encoding="UTF-8" standalone="no"?>
<!DOCTYPE svg PUBLIC "-//W3C//DTD SVG 1.1//EN"
 "http://www.w3.org/Graphics/SVG/1.1/DTD/svg11.dtd">
<!-- Generated by graphviz version 7.1.0 (0)
 -->
<!-- Pages: 1 -->
<svg width="420pt" height="404pt"
 viewBox="0.00 0.00 420.03 404.00" xmlns="http://www.w3.org/2000/svg" xmlns:xlink="http://www.w3.org/1999/xlink">
<g id="graph0" class="graph" transform="scale(1 1) rotate(0) translate(4 400)">
<polygon fill="white" stroke="none" points="-4,4 -4,-400 416.03,-400 416.03,4 -4,4"/>
<!-- [root] ___ROOT___#build -->
<g id="node1" class="node">
<title>[root] ___ROOT___#build</title>
<ellipse fill="none" stroke="black" cx="151.79" cy="-90" rx="124.28" ry="18"/>
<text text-anchor="middle" x="151.79" y="-86.3" font-family="Times,serif" font-size="14.00">[root] ___ROOT___#build</text>
</g>
<!-- [root] ___ROOT___ -->
<g id="node2" class="node">
<title>[root] ___ROOT___</title>
<ellipse fill="none" stroke="black" cx="151.79" cy="-18" rx="92.88" ry="18"/>
<text text-anchor="middle" x="151.79" y="-14.3" font-family="Times,serif" font-size="14.00">[root] ___ROOT___</text>
</g>
<!-- [root] ___ROOT___#build&#45;&gt;[root] ___ROOT___ -->
<g id="edge1" class="edge">
<title>[root] ___ROOT___#build&#45;&gt;[root] ___ROOT___</title>
<path fill="none" stroke="black" d="M151.79,-71.7C151.79,-64.41 151.79,-55.73 151.79,-47.54"/>
<polygon fill="black" stroke="black" points="155.29,-47.62 151.79,-37.62 148.29,-47.62 155.29,-47.62"/>
</g>
<!-- [root] desktop#build -->
<g id="node3" class="node">
<title>[root] desktop#build</title>
<ellipse fill="none" stroke="black" cx="304.79" cy="-378" rx="107.48" ry="18"/>
<text text-anchor="middle" x="304.79" y="-374.3" font-family="Times,serif" font-size="14.00">[root] desktop#build</text>
</g>
<!-- [root] web#build -->
<g id="node4" class="node">
<title>[root] web#build</title>
<ellipse fill="none" stroke="black" cx="304.79" cy="-306" rx="89.88" ry="18"/>
<text text-anchor="middle" x="304.79" y="-302.3" font-family="Times,serif" font-size="14.00">[root] web#build</text>
</g>
<!-- [root] desktop#build&#45;&gt;[root] web#build -->
<g id="edge2" class="edge">
<title>[root] desktop#build&#45;&gt;[root] web#build</title>
<path fill="none" stroke="black" d="M304.79,-359.7C304.79,-352.41 304.79,-343.73 304.79,-335.54"/>
<polygon fill="black" stroke="black" points="308.29,-335.62 304.79,-325.62 301.29,-335.62 308.29,-335.62"/>
</g>
<!-- [root] ui#build -->
<g id="node7" class="node">
<title>[root] ui#build</title>
<ellipse fill="none" stroke="black" cx="205.79" cy="-234" rx="79.09" ry="18"/>
<text text-anchor="middle" x="205.79" y="-230.3" font-family="Times,serif" font-size="14.00">[root] ui#build</text>
</g>
<!-- [root] web#build&#45;&gt;[root] ui#build -->
<g id="edge7" class="edge">
<title>[root] web#build&#45;&gt;[root] ui#build</title>
<path fill="none" stroke="black" d="M281.08,-288.23C268.34,-279.23 252.45,-267.99 238.55,-258.16"/>
<polygon fill="black" stroke="black" points="240.73,-255.42 230.55,-252.5 236.69,-261.13 240.73,-255.42"/>
</g>
<!-- [root] editor#build -->
<g id="node5" class="node">
<title>[root] editor#build</title>
<ellipse fill="none" stroke="black" cx="98.79" cy="-306" rx="98.58" ry="18"/>
<text text-anchor="middle" x="98.79" y="-302.3" font-family="Times,serif" font-size="14.00">[root] editor#build</text>
</g>
<!-- [root] tsconfig#build -->
<g id="node6" class="node">
<title>[root] tsconfig#build</title>
<ellipse fill="none" stroke="black" cx="151.79" cy="-162" rx="107.78" ry="18"/>
<text text-anchor="middle" x="151.79" y="-158.3" font-family="Times,serif" font-size="14.00">[root] tsconfig#build</text>
</g>
<!-- [root] editor#build&#45;&gt;[root] tsconfig#build -->
<g id="edge3" class="edge">
<title>[root] editor#build&#45;&gt;[root] tsconfig#build</title>
<path fill="none" stroke="black" d="M100.61,-287.73C102.97,-269.39 107.99,-239.82 117.79,-216 121.52,-206.94 126.8,-197.74 132.09,-189.59"/>
<polygon fill="black" stroke="black" points="134.85,-191.75 137.6,-181.52 129.07,-187.81 134.85,-191.75"/>
</g>
<!-- [root] editor#build&#45;&gt;[root] ui#build -->
<g id="edge4" class="edge">
<title>[root] editor#build&#45;&gt;[root] ui#build</title>
<path fill="none" stroke="black" d="M124.42,-288.23C138.42,-279.08 155.95,-267.61 171.15,-257.66"/>
<polygon fill="black" stroke="black" points="173.02,-260.62 179.47,-252.22 169.19,-254.76 173.02,-260.62"/>
</g>
<!-- [root] tsconfig#build&#45;&gt;[root] ___ROOT___#build -->
<g id="edge5" class="edge">
<title>[root] tsconfig#build&#45;&gt;[root] ___ROOT___#build</title>
<path fill="none" stroke="black" d="M151.79,-143.7C151.79,-136.41 151.79,-127.73 151.79,-119.54"/>
<polygon fill="black" stroke="black" points="155.29,-119.62 151.79,-109.62 148.29,-119.62 155.29,-119.62"/>
</g>
<!-- [root] ui#build&#45;&gt;[root] tsconfig#build -->
<g id="edge6" class="edge">
<title>[root] ui#build&#45;&gt;[root] tsconfig#build</title>
<path fill="none" stroke="black" d="M192.72,-216.05C186.51,-208.01 178.95,-198.2 172.02,-189.23"/>
<polygon fill="black" stroke="black" points="174.92,-187.25 166.04,-181.47 169.38,-191.53 174.92,-187.25"/>
</g>
</g>
</svg>
